<?xml version="1.0" standalone="no"?>
<!DOCTYPE svg PUBLIC "-//W3C//DTD SVG 20010904//EN"
 "http://www.w3.org/TR/2001/REC-SVG-20010904/DTD/svg10.dtd">
<svg version="1.0" xmlns="http://www.w3.org/2000/svg"
 width="700.000000pt" height="700.000000pt" viewBox="0 0 700.000000 700.000000"
 preserveAspectRatio="xMidYMid meet">
<metadata>
Created by potrace 1.14, written by Peter Selinger 2001-2017
</metadata>
<g transform="translate(0.000000,700.000000) scale(0.100000,-0.100000)"
fill="#000000" stroke="none">
<path d="M3335 6989 c-22 -4 -56 -10 -75 -14 -163 -29 -367 -108 -524 -202
-58 -35 -218 -146 -242 -168 -6 -5 -36 -30 -65 -54 -71 -58 -303 -292 -354
-356 -22 -27 -43 -52 -46 -55 -3 -3 -33 -41 -67 -85 -34 -44 -69 -89 -78 -100
-34 -44 -205 -307 -266 -410 -135 -226 -340 -641 -418 -845 -11 -30 -25 -64
-29 -75 -38 -83 -193 -533 -206 -595 -2 -8 -13 -51 -25 -95 -40 -146 -91 -365
-106 -460 -3 -16 -9 -46 -14 -65 -5 -19 -12 -60 -15 -90 -4 -30 -8 -64 -10
-75 -3 -28 -16 -125 -20 -160 -6 -53 -18 -288 -18 -365 -1 -454 129 -924 371
-1350 27 -48 154 -240 177 -268 7 -9 40 -51 73 -92 272 -342 693 -649 1112
-813 101 -40 280 -99 336 -112 96 -22 216 -46 249 -50 22 -3 51 -7 65 -10 131
-26 575 -27 720 -1 14 3 57 9 96 15 218 33 528 135 764 252 626 312 1111 852
1353 1509 63 169 123 402 142 550 2 13 6 45 10 70 16 128 23 409 11 525 -3 33
-8 92 -11 130 -9 105 -36 288 -60 410 -8 39 -16 81 -19 95 -39 227 -201 760
-325 1067 -294 730 -662 1324 -1071 1733 -148 149 -163 162 -283 253 -245 187
-458 286 -747 348 -66 14 -328 20 -385 8z"/>
</g>
</svg>
